<?xml version="1.0" encoding="UTF-8" standalone="no"?>
<svg
   xmlns:dc="http://purl.org/dc/elements/1.1/"
   xmlns:cc="http://creativecommons.org/ns#"
   xmlns:rdf="http://www.w3.org/1999/02/22-rdf-syntax-ns#"
   xmlns:svg="http://www.w3.org/2000/svg"
   xmlns="http://www.w3.org/2000/svg"
   xmlns:xlink="http://www.w3.org/1999/xlink"
   xmlns:sodipodi="http://sodipodi.sourceforge.net/DTD/sodipodi-0.dtd"
   xmlns:inkscape="http://www.inkscape.org/namespaces/inkscape"
   enable-background="new 0 0 512 512"
   height="600"
   id="Layer_1"
   version="1.1"
   viewBox="0 0 1000 600"
   width="1000"
   xml:space="preserve"
   sodipodi:docname="upgrading_dry_gems.svg"
   inkscape:version="0.92.4 (5da689c313, 2019-01-14)"
   inkscape:export-filename="/Users/moroz/Documents/ruby_previews/do_notation.png"
   inkscape:export-xdpi="96"
   inkscape:export-ydpi="96"><metadata
     id="metadata118"><rdf:RDF><cc:Work
         rdf:about=""><dc:format>image/svg+xml</dc:format><dc:type
           rdf:resource="http://purl.org/dc/dcmitype/StillImage" /><dc:title></dc:title></cc:Work></rdf:RDF></metadata><defs
     id="defs116"><clipPath
       clipPathUnits="userSpaceOnUse"
       id="clipPath3891"><use
         x="0"
         y="0"
         xlink:href="#g3887"
         id="use3893"
         width="100%"
         height="100%" /></clipPath></defs><sodipodi:namedview
     pagecolor="#ffffff"
     bordercolor="#666666"
     borderopacity="1"
     objecttolerance="10"
     gridtolerance="10"
     guidetolerance="10"
     inkscape:pageopacity="0"
     inkscape:pageshadow="2"
     inkscape:window-width="1002"
     inkscape:window-height="642"
     id="namedview114"
     showgrid="false"
     inkscape:zoom="0.4609375"
     inkscape:cx="709.42373"
     inkscape:cy="342.77966"
     inkscape:window-x="35"
     inkscape:window-y="62"
     inkscape:window-maximized="0"
     inkscape:current-layer="g111" /><g
     id="g111"
     transform="translate(0,88)"><polyline
       points="0,512 512,512 512,0 0,0 0,512  "
       id="polyline99"
       style="fill:#f05336"
       transform="matrix(1.953125,0,0,1.171875,0,-88)" /><g
       id="g3889"
       clip-path="url(#clipPath3891)"
       transform="translate(246,98)"><g
         inkscape:label="Clip"
         id="g3887"><path
           style="fill:#5da3c2"
           inkscape:connector-curvature="0"
           id="path103"
           d="m 295.802,226.195 c -0.076,0.348 -0.166,0.789 -0.228,1.081 l -2.629,12.306 2.766,-12.965 0.091,-0.422" /><polyline
           style="fill:#5da3c2"
           id="polyline105"
           points="217.02,234.431 215.568,239.573 217.02,234.433 217.02,234.431  " /><path
           style="fill:#ffffff"
           inkscape:connector-curvature="0"
           id="path107"
           d="M 133.132,219.333 243.533,335.448 190.73,219.333 Z m 72.155,0 50.548,114.904 50.548,-114.904 z m 169.591,0 H 320.94 L 268.28,335.448 Z M 211.57,206.009 h 90.657 l -45.328,-47.345 z m 123.284,-51.395 h -66.02 l 45.234,47.248 z m -158.038,0 21.455,48.771 46.695,-48.771 z m 198.201,51.395 -29.048,-43.571 -19.167,43.571 z m -237.669,0 h 47.52 L 166.129,163.411 Z M 163.588,147 h 184.64 L 393.912,215.526 254.956,364 116,217.43 Z" /><path
           style="fill:none;stroke:#ffffff;stroke-width:3;stroke-linejoin:round;stroke-miterlimit:10"
           inkscape:connector-curvature="0"
           id="path109"
           stroke-miterlimit="10"
           d="M 133.132,219.333 243.533,335.448 190.73,219.333 Z m 72.155,0 50.548,114.904 50.548,-114.904 z m 169.591,0 H 320.94 L 268.28,335.448 Z M 211.57,206.009 h 90.657 l -45.328,-47.345 z m 123.284,-51.395 h -66.02 l 45.234,47.248 z m -158.038,0 21.455,48.771 46.695,-48.771 z m 198.201,51.395 -29.048,-43.571 -19.167,43.571 z m -237.669,0 h 47.52 L 166.129,163.411 Z M 163.588,147 h 184.64 L 393.912,215.526 254.956,364 116,217.43 Z" /></g></g><flowRoot
       xml:space="preserve"
       id="flowRoot3914"
       style="font-style:normal;font-weight:normal;font-size:40px;line-height:1.25;font-family:sans-serif;letter-spacing:0px;word-spacing:0px;fill:#ffffff;fill-opacity:1;stroke:none;"
       transform="translate(0,-88)"><flowRegion
         id="flowRegion3916"
         style="fill:#ffffff;"><rect
           id="rect3918"
           width="861.28815"
           height="232.13559"
           x="88.94915"
           y="92.338982"
           style="fill:#ffffff;" /></flowRegion><flowPara
         id="flowPara3920" /></flowRoot><flowRoot
       xml:space="preserve"
       id="flowRoot3934"
       style="font-style:normal;font-variant:normal;font-weight:normal;font-stretch:normal;font-size:40px;line-height:1.25;font-family:'source sans pro';-inkscape-font-specification:'source sans pro';text-align:center;letter-spacing:0px;word-spacing:0px;text-anchor:middle;fill:#ffffff;fill-opacity:1;stroke:none"
       transform="translate(-159.58053,33.491525)"><flowRegion
         id="flowRegion3936"
         style="font-style:normal;font-variant:normal;font-weight:normal;font-stretch:normal;font-family:'source sans pro';-inkscape-font-specification:'source sans pro';text-align:center;text-anchor:middle;fill:#ffffff"><rect
           id="rect3938"
           width="943.72888"
           height="260.33902"
           x="186.57628"
           y="12.067797"
           style="font-style:normal;font-variant:normal;font-weight:normal;font-stretch:normal;font-family:'source sans pro';-inkscape-font-specification:'source sans pro';text-align:center;text-anchor:middle;fill:#ffffff" /></flowRegion><flowPara
         style="font-style:normal;font-variant:normal;font-weight:normal;font-stretch:normal;font-size:69.33333588px;line-height:1;font-family:'Source Sans Pro SemiBold';-inkscape-font-specification:'Source Sans Pro SemiBold, ';text-align:center;text-anchor:middle"
         id="flowPara87"> dry-rb 1.0: upgrading validations, types and schemas </flowPara></flowRoot></g></svg>