<?xml version="1.0" encoding="UTF-8" standalone="no"?>
<svg
   xmlns:dc="http://purl.org/dc/elements/1.1/"
   xmlns:cc="http://creativecommons.org/ns#"
   xmlns:rdf="http://www.w3.org/1999/02/22-rdf-syntax-ns#"
   xmlns:svg="http://www.w3.org/2000/svg"
   xmlns="http://www.w3.org/2000/svg"
   xmlns:xlink="http://www.w3.org/1999/xlink"
   xmlns:sodipodi="http://sodipodi.sourceforge.net/DTD/sodipodi-0.dtd"
   xmlns:inkscape="http://www.inkscape.org/namespaces/inkscape"
   inkscape:export-ydpi="96"
   inkscape:export-xdpi="96"
   inkscape:export-filename="/Users/moroz/Documents/ruby_previews/do_notation.png"
   inkscape:version="1.0 (4035a4f, 2020-05-01)"
   sodipodi:docname="part_one.svg"
   xml:space="preserve"
   width="1000"
   viewBox="0 0 1000 600"
   version="1.1"
   id="Layer_1"
   height="600"
   enable-background="new 0 0 512 512"><metadata
     id="metadata118"><rdf:RDF><cc:Work
         rdf:about=""><dc:format>image/svg+xml</dc:format><dc:type
           rdf:resource="http://purl.org/dc/dcmitype/StillImage" /><dc:title /></cc:Work></rdf:RDF></metadata><defs
     id="defs116"><clipPath
       id="clipPath3891"
       clipPathUnits="userSpaceOnUse"><use
         height="100%"
         width="100%"
         id="use3893"
         xlink:href="#g3887"
         y="0"
         x="0" /></clipPath></defs><sodipodi:namedview
     inkscape:document-rotation="0"
     inkscape:current-layer="g111"
     inkscape:window-maximized="0"
     inkscape:window-y="40"
     inkscape:window-x="35"
     inkscape:cy="342.77966"
     inkscape:cx="709.42373"
     inkscape:zoom="0.4609375"
     showgrid="false"
     id="namedview114"
     inkscape:window-height="642"
     inkscape:window-width="1002"
     inkscape:pageshadow="2"
     inkscape:pageopacity="0"
     guidetolerance="10"
     gridtolerance="10"
     objecttolerance="10"
     borderopacity="1"
     bordercolor="#666666"
     pagecolor="#ffffff" /><g
     transform="translate(0,88)"
     id="g111"><polyline
       transform="matrix(1.953125,0,0,1.171875,0,-88)"
       style="fill:#f05336"
       id="polyline99"
       points="0,512 512,512 512,0 0,0 0,512  " /><g
       transform="translate(246,98)"
       clip-path="url(#clipPath3891)"
       id="g3889"><g
         id="g3887"
         inkscape:label="Clip"><path
           d="m 295.802,226.195 c -0.076,0.348 -0.166,0.789 -0.228,1.081 l -2.629,12.306 2.766,-12.965 0.091,-0.422"
           id="path103"
           inkscape:connector-curvature="0"
           style="fill:#5da3c2" /><polyline
           points="217.02,234.431 215.568,239.573 217.02,234.433 217.02,234.431  "
           id="polyline105"
           style="fill:#5da3c2" /><path
           d="M 133.132,219.333 243.533,335.448 190.73,219.333 Z m 72.155,0 50.548,114.904 50.548,-114.904 z m 169.591,0 H 320.94 L 268.28,335.448 Z M 211.57,206.009 h 90.657 l -45.328,-47.345 z m 123.284,-51.395 h -66.02 l 45.234,47.248 z m -158.038,0 21.455,48.771 46.695,-48.771 z m 198.201,51.395 -29.048,-43.571 -19.167,43.571 z m -237.669,0 h 47.52 L 166.129,163.411 Z M 163.588,147 h 184.64 L 393.912,215.526 254.956,364 116,217.43 Z"
           id="path107"
           inkscape:connector-curvature="0"
           style="fill:#ffffff" /><path
           d="M 133.132,219.333 243.533,335.448 190.73,219.333 Z m 72.155,0 50.548,114.904 50.548,-114.904 z m 169.591,0 H 320.94 L 268.28,335.448 Z M 211.57,206.009 h 90.657 l -45.328,-47.345 z m 123.284,-51.395 h -66.02 l 45.234,47.248 z m -158.038,0 21.455,48.771 46.695,-48.771 z m 198.201,51.395 -29.048,-43.571 -19.167,43.571 z m -237.669,0 h 47.52 L 166.129,163.411 Z M 163.588,147 h 184.64 L 393.912,215.526 254.956,364 116,217.43 Z"
           stroke-miterlimit="10"
           id="path109"
           inkscape:connector-curvature="0"
           style="fill:none;stroke:#ffffff;stroke-width:3;stroke-linejoin:round;stroke-miterlimit:10" /></g></g><flowRoot
       transform="translate(0,-88)"
       style="font-style:normal;font-weight:normal;font-size:40px;line-height:1.25;font-family:sans-serif;letter-spacing:0px;word-spacing:0px;fill:#ffffff;fill-opacity:1;stroke:none"
       id="flowRoot3914"
       xml:space="preserve"><flowRegion
         style="fill:#ffffff"
         id="flowRegion3916"><rect
           style="fill:#ffffff;"
           y="92.338982"
           x="88.94915"
           height="232.13559"
           width="861.28815"
           id="rect3918" /></flowRegion><flowPara
         id="flowPara3920" /></flowRoot><flowRoot
       transform="translate(-159.58053,33.491525)"
       style="font-style:normal;font-variant:normal;font-weight:normal;font-stretch:normal;font-size:40px;line-height:1.25;font-family:'source sans pro';-inkscape-font-specification:'source sans pro';text-align:center;letter-spacing:0px;word-spacing:0px;text-anchor:middle;fill:#ffffff;fill-opacity:1;stroke:none"
       id="flowRoot3934"
       xml:space="preserve"><flowRegion
         style="font-style:normal;font-variant:normal;font-weight:normal;font-stretch:normal;font-family:'source sans pro';-inkscape-font-specification:'source sans pro';text-align:center;text-anchor:middle;fill:#ffffff"
         id="flowRegion3936"><rect
           style="font-style:normal;font-variant:normal;font-weight:normal;font-stretch:normal;font-family:'source sans pro';-inkscape-font-specification:'source sans pro';text-align:center;text-anchor:middle;fill:#ffffff;stroke-width:1"
           y="12.067797"
           x="186.57628"
           height="260.33902"
           width="943.72888"
           id="rect3938" /></flowRegion><flowPara
         id="flowPara87"
         style="font-style:normal;font-variant:normal;font-weight:normal;font-stretch:normal;font-size:69.3333px;line-height:1;font-family:'Source Sans Pro SemiBold';-inkscape-font-specification:'Source Sans Pro SemiBold, ';text-align:center;text-anchor:middle"> Helpful service objects. Choosing the right design</flowPara></flowRoot></g></svg>
